<?xml version="1.0" standalone="no"?>
<!DOCTYPE svg PUBLIC "-//W3C//DTD SVG 20010904//EN"
 "http://www.w3.org/TR/2001/REC-SVG-20010904/DTD/svg10.dtd">
<svg version="1.0" xmlns="http://www.w3.org/2000/svg"
 width="700.000000pt" height="700.000000pt" viewBox="0 0 700.000000 700.000000"
 preserveAspectRatio="xMidYMid meet">
<metadata>
Created by potrace 1.14, written by Peter Selinger 2001-2017
</metadata>
<g transform="translate(0.000000,700.000000) scale(0.100000,-0.100000)"
fill="#000000" stroke="none">
<path d="M3173 6774 c-3 -8 -6 -192 -7 -408 l-1 -393 -500 -1 c-275 -1 -712
-2 -972 -2 l-472 0 974 -1946 c536 -1070 975 -1952 975 -1959 0 -8 -46 -105
-101 -217 -56 -112 -105 -214 -111 -227 -5 -14 -12 -21 -18 -15 -8 9 -739
1464 -1701 3387 l-489 977 -340 0 c-187 0 -340 -2 -340 -5 0 -3 91 -184 201
-402 111 -219 305 -603 431 -853 127 -250 299 -590 383 -755 84 -165 255 -502
380 -750 125 -247 301 -594 390 -770 89 -176 263 -518 385 -760 713 -1409 691
-1366 703 -1362 13 4 53 81 329 630 200 399 232 456 242 440 7 -10 133 -256
280 -548 147 -291 271 -534 276 -538 4 -5 32 40 62 100 30 59 165 326 300 593
135 267 323 638 418 825 94 187 176 346 182 352 6 7 7 13 3 13 -4 0 -3 6 3 12
5 7 137 265 292 573 155 308 374 740 485 960 111 220 304 600 428 845 123 245
332 657 463 917 131 259 236 474 233 478 -8 7 -657 7 -669 0 -5 -3 -475 -936
-1044 -2073 -1208 -2413 -1147 -2293 -1158 -2286 -10 6 -228 446 -228 461 0 9
123 255 1381 2762 314 623 568 1135 566 1137 -1 2 -465 5 -1030 7 -565 3
-1030 6 -1032 9 -3 2 -5 185 -5 406 l-1 403 -270 -1 c-230 -1 -271 -3 -276
-16z m-8 -1931 l0 -588 68 -135 c63 -124 253 -495 418 -818 l68 -133 -50 -102
c-111 -225 -151 -302 -159 -311 -8 -8 -120 214 -540 1069 -70 143 -205 418
-300 610 -401 815 -480 977 -480 988 0 3 220 5 488 6 l488 2 -1 -588z m1655
579 c0 -22 -125 -278 -974 -1994 -65 -131 -120 -238 -122 -238 -2 0 -4 501 -4
1114 0 885 2 1115 12 1119 26 9 1088 8 1088 -1z"/>
</g>
</svg>
